<svg width="128" height="128" viewBox="0 0 128 128" fill="none" xmlns="http://www.w3.org/2000/svg">
<circle cx="64" cy="64" r="61.5" fill="white" stroke="#FF5851" stroke-width="5"/>
<path d="M46.15 82.95C42.0167 82.95 38.7333 81.7833 36.3 79.45C33.9 77.1167 32.7 73.8 32.7 69.5V67.65H40.8V69.95C40.8 71.5833 41.2667 72.8833 42.2 73.85C43.1667 74.8167 44.4833 75.3 46.15 75.3C47.7833 75.3 49.0667 74.8167 50 73.85C50.9667 72.8833 51.45 71.5833 51.45 69.95V52.65H36.95V45.5H59.65V69.5C59.65 73.8 58.45 77.1167 56.05 79.45C53.65 81.7833 50.35 82.95 46.15 82.95ZM67.2289 82V45.2H80.5789C85.2122 45.2 88.8456 46.35 91.4789 48.65C94.1122 50.9167 95.4289 54.0333 95.4289 58V58.8C95.4289 62.7333 94.1122 65.85 91.4789 68.15C88.8456 70.4167 85.2122 71.55 80.5789 71.55H75.4289V82H67.2289ZM80.9789 52.3H75.4289V64.45H80.9789C82.8789 64.45 84.3789 63.9 85.4789 62.8C86.5789 61.7 87.1289 60.2333 87.1289 58.4C87.1289 56.5333 86.5789 55.05 85.4789 53.95C84.3789 52.85 82.8789 52.3 80.9789 52.3Z" fill="#FF5851"/>
</svg>